<?xml version="1.0" encoding="UTF-8"?>
<svg id="home" xmlns="http://www.w3.org/2000/svg" version="1.1" viewBox="0 0 78.48 68.77">
  <!-- Generator: Adobe Illustrator 29.7.1, SVG Export Plug-In . SVG Version: 2.1.1 Build 8)  -->
  <defs>
    <style>
      .st0 {
        fill: #f3f3f3;
      }
    </style>
  </defs>
  <path class="st0" d="M64.85,68.76c1.4,0,2.54-1.13,2.54-2.54v-27.16h6.68c2.44,0,4.41-1.98,4.41-4.41,0-1.39-.65-2.63-1.65-3.44l-8.63-7.48v-12.46c0-1.46-1.18-2.64-2.63-2.64h-5.46c-1.46,0-2.64,1.18-2.64,2.64v3.14L42.13,1.08c-1.66-1.44-4.12-1.44-5.78,0L1.52,31.32c-1.39,1.21-1.88,3.15-1.24,4.88.65,1.72,2.29,2.87,4.13,2.87h6.68v27.16c0,1.41,1.14,2.54,2.54,2.54h15.01v-19.76c0-2.79,2.26-5.05,5.05-5.05h11.11c2.79,0,5.05,2.26,5.05,5.05v19.74h15Z"/>
</svg>