<?xml version="1.0" encoding="UTF-8"?>
<svg id="Layer_2" data-name="Layer 2" xmlns="http://www.w3.org/2000/svg" viewBox="0 0 150.4 150.39">
  <defs>
    <style>
      .cls-1 {
        fill: #f3f3f3;
      }
    </style>
  </defs>
  <g id="Layer_1-2" data-name="Layer 1">
    <path class="cls-1" d="M147.68,134.54l-33.43-33.43c18.45-24.8,16.43-60.04-6.08-82.56-24.75-24.74-64.87-24.74-89.61,0s-24.74,64.86,0,89.61c22.52,22.51,57.75,24.54,82.56,6.08l33.43,33.43c1.82,1.81,4.19,2.71,6.57,2.71s4.75-.9,6.56-2.71c3.63-3.63,3.62-9.5,0-13.13ZM100.92,87.78c-1.67,2.58-3.63,5-5.88,7.25s-4.68,4.22-7.25,5.88c-17.37,11.33-40.87,9.37-56.11-5.87-17.5-17.49-17.5-45.86.01-63.36,17.49-17.5,45.86-17.5,63.35,0,15.25,15.24,17.21,38.74,5.88,56.1Z"/>
  </g>
</svg>